<svg width="19" height="19" fill="none" xmlns="http://www.w3.org/2000/svg"><path d="M7.295.032a8.009 8.009 0 0 0-3.401 1.107c-.612.368-.957.639-1.53 1.2A7.928 7.928 0 0 0 .029 7.315 9.59 9.59 0 0 0 .08 9.152c.273 1.819 1.195 3.551 2.531 4.755a8 8 0 0 0 4.118 1.994c.485.082 1.537.114 2.047.062a8.037 8.037 0 0 0 3.648-1.302c.237-.159.441-.303.452-.322.011-.018.937.883 2.075 2.021l2.054 2.054.704-.705.705-.704-2.054-2.054c-1.138-1.138-2.039-2.064-2.021-2.075.019-.011.163-.215.322-.452a8.037 8.037 0 0 0 1.302-3.648c.052-.51.02-1.562-.062-2.047-.36-2.105-1.47-3.922-3.157-5.166C11.675.776 10.48.287 9.12.08 8.722.02 7.698-.007 7.295.032m1.223 1.997a6.032 6.032 0 0 1 3.088 1.181c.326.244.934.852 1.175 1.176.949 1.273 1.353 2.767 1.169 4.323a5.92 5.92 0 0 1-1.714 3.527 5.957 5.957 0 0 1-4.23 1.761 5.996 5.996 0 0 1-5.468-3.534c-.825-1.833-.688-3.904.374-5.633A6.268 6.268 0 0 1 4.83 2.912a5.962 5.962 0 0 1 3.688-.883" fill-rule="evenodd" fill="#000"/></svg>