<svg width="20" height="20" fill="none" xmlns="http://www.w3.org/2000/svg"><path d="M9.367.019c-.064.008-.282.03-.484.05-1.67.167-3.46.87-4.831 1.898C1.387 3.965-.094 7.025.011 10.317a9.983 9.983 0 0 0 7.63 9.397c2.587.634 5.4.183 7.642-1.226a9.995 9.995 0 0 0 4.431-6.129c.215-.877.265-1.323.265-2.359 0-.781-.011-.988-.074-1.4-.239-1.558-.822-3.056-1.655-4.25-1.663-2.385-4.139-3.896-7-4.27-.355-.046-1.646-.088-1.883-.061m1.75 2.062a8.089 8.089 0 0 1 4.439 2.162c.784.744 1.543 1.901 1.929 2.94.357.963.496 1.752.496 2.817 0 .938-.102 1.617-.367 2.438a7.994 7.994 0 0 1-5.683 5.323c-.713.177-1.098.221-1.931.221-.829 0-1.218-.044-1.917-.217a7.999 7.999 0 0 1-5.898-6.082c-.131-.604-.166-.964-.166-1.683 0-.719.035-1.079.166-1.683.373-1.723 1.315-3.3 2.632-4.406A8.033 8.033 0 0 1 9.25 2.035c.399-.041 1.45-.016 1.867.046M7.15 5.546c-.399.098-.815.423-.983.77-.219.453-.218.914.003 1.375.098.204.435.541.639.639.621.298 1.27.195 1.743-.278.579-.579.598-1.46.045-2.065a1.522 1.522 0 0 0-1.447-.441m5 0c-.399.098-.815.423-.983.77-.219.453-.218.914.003 1.375.098.204.435.541.639.639.621.298 1.27.195 1.743-.278.579-.579.598-1.46.045-2.065a1.522 1.522 0 0 0-1.447-.441M3.5 10.185c0 .3.064.805.155 1.211a6.514 6.514 0 0 0 2.795 4.046 6.505 6.505 0 0 0 4.946.903 6.511 6.511 0 0 0 4.949-4.949 6.45 6.45 0 0 0 .155-1.211V10h-1c-.959 0-1 .003-1 .063 0 .213-.081.786-.149 1.054-.519 2.045-2.432 3.469-4.534 3.374a4.426 4.426 0 0 1-2.896-1.224c-.854-.817-1.309-1.786-1.406-2.992L5.493 10H3.5v.185" fill-rule="evenodd" fill="#000"/></svg>